<?xml version='1.0' encoding='iso-8859-1'?>
<svg version="1.1" xmlns="http://www.w3.org/2000/svg" viewBox="0 0 463 463" xmlns:xlink="http://www.w3.org/1999/xlink" enable-background="new 0 0 463 463">
  <g>
    <path d="m442.98,122.995l-181.705-101.756c-4.267-12.345-15.998-21.239-29.775-21.239-13.777,0-25.509,8.895-29.775,21.24l-181.707,101.756c-11.303,6.333-15.351,20.683-9.021,31.99 2.959,5.281 7.67,8.977 13.004,10.77v224.102c-4.899,4.31-8,10.619-8,17.642v32c0,12.958 10.542,23.5 23.5,23.5h208c12.958,0 23.5-10.542 23.5-23.5v-32c0-7.023-3.101-13.332-8-17.642v-134.358c0-15.786 6.346-30.43 17.87-41.231 11.514-10.791 26.577-16.174 42.405-15.146 29.564,1.914 52.724,27.641 52.724,58.569v132.166c-4.899,4.31-8,10.619-8,17.642v32c0,12.958 10.542,23.5 23.5,23.5h32c12.958,0 23.5-10.542 23.5-23.5v-32c0-7.023-3.101-13.332-8-17.642v-224.098c5.439-1.836 10.118-5.625 13.005-10.777 6.328-11.304 2.28-25.654-9.025-31.988zm-211.48-107.995c9.098,0 16.5,7.402 16.5,16.5s-7.402,16.5-16.5,16.5-16.5-7.402-16.5-16.5 7.401-16.5 16.5-16.5zm-204.152,121.083l173.538-97.181c1.378,5.699 4.304,10.801 8.315,14.825l-173.546,97.188c-4.09,2.289-9.284,0.825-11.572-3.258-2.289-4.091-0.824-9.283 3.265-11.574zm228.652,303.417c0,4.687-3.813,8.5-8.5,8.5h-208c-4.687,0-8.5-3.813-8.5-8.5v-32c0-4.687 3.813-8.5 8.5-8.5h208c4.687,0 8.5,3.813 8.5,8.5v32zm176,0c0,4.687-3.813,8.5-8.5,8.5h-32c-4.687,0-8.5-3.813-8.5-8.5v-32c0-4.687 3.813-8.5 8.5-8.5h32c4.687,0 8.5,3.813 8.5,8.5v32zm-8.5-55.5h-32c-0.168,0-0.333,0.009-0.5,0.013v-126.32c0-38.813-29.322-71.114-66.755-73.539-20.016-1.297-39.061,5.513-53.633,19.172-14.371,13.469-22.612,32.487-22.612,52.174v128.513c-0.167-0.003-0.332-0.013-0.5-0.013h-208c-0.168,0-0.333,0.009-0.5,0.013v-218.248c1.355-0.457 2.689-1.038 3.981-1.76l181.702-101.756c2.197,0.486 4.476,0.751 6.817,0.751 2.34,0 4.619-0.264 6.815-0.751l181.708,101.758c1.271,0.711 2.605,1.296 3.977,1.758v218.248c-0.167-0.004-0.333-0.013-0.5-0.013zm15.418-236.347c-1.502,2.682-4.351,4.347-7.434,4.347-1.46,0-2.853-0.365-4.136-1.083l-173.55-97.19c4.011-4.024 6.937-9.126 8.315-14.826l173.537,97.181c4.091,2.292 5.556,7.484 3.268,11.571z"/>
    <path d="m192.388,203.325c-14.571-13.658-33.616-20.473-53.633-19.172-36.398,2.358-65.12,32.967-66.68,70.339-0.044,0.331-0.075,0.665-0.075,1.008 0,0.236 0.014,0.468 0.035,0.698-0.01,0.499-0.035,0.994-0.035,1.495v77.807c0,12.958 10.542,23.5 23.5,23.5h96c12.958,0 23.5-10.542 23.5-23.5v-80c0-19.688-8.242-38.705-22.612-52.175zm7.108,44.675h-48.496v-48.507c11.609,1.522 22.392,6.586 31.129,14.775 9.674,9.068 15.681,20.847 17.367,33.732zm-112.496,15h49v33h-49v-33zm64,0h49v33h-49v-33zm-15-63.491v48.491h-48.215c4.042-25.192 23.547-45.17 48.215-48.491zm-49,135.991v-24.5h49v33h-40.5c-4.687,0-8.5-3.813-8.5-8.5zm104.5,8.5h-40.5v-33h49v24.5c0,4.687-3.813,8.5-8.5,8.5z"/>
  </g>
</svg>
