<?xml version="1.0" encoding="iso-8859-1"?>
<!-- Generator: Adobe Illustrator 18.0.0, SVG Export Plug-In . SVG Version: 6.00 Build 0)  -->
<!DOCTYPE svg PUBLIC "-//W3C//DTD SVG 1.1//EN" "http://www.w3.org/Graphics/SVG/1.1/DTD/svg11.dtd">
<svg xmlns="http://www.w3.org/2000/svg" xmlns:xlink="http://www.w3.org/1999/xlink" version="1.1" id="Capa_1" x="0px" y="0px" viewBox="0 0 297 297" style="enable-background:new 0 0 297 297;" xml:space="preserve" width="512px" height="512px">
<g>
	<path d="M221.93,183.185L62.208,279.018c-4.585,2.751-6.07,8.697-3.32,13.281c1.814,3.025,5.021,4.701,8.31,4.701   c1.695,0,3.412-0.445,4.971-1.381l159.722-95.832c4.585-2.752,6.07-8.697,3.321-13.281   C232.46,181.92,226.513,180.436,221.93,183.185z" fill="#FFFFFF"/>
	<polygon points="65.502,153.422 74.061,153.422 69.742,141.602  " fill="#FFFFFF"/>
	<path d="M68.64,255.192c2.284,0,4.568-0.806,6.397-2.415c2.357-2.076,57.754-51.451,57.754-102.631   c0-35.385-28.778-64.174-64.151-64.174c-35.373,0-64.151,28.789-64.151,64.174c0,51.18,55.396,100.555,57.753,102.631   C64.07,254.387,66.355,255.192,68.64,255.192z M59.808,169.244c-0.966,2.591-1.766,4.263-2.516,5.261   c-0.693,0.918-2.053,2.01-4.602,2.01c-1.709,0-3.229-0.623-4.518-1.853c-1.296-1.234-1.982-2.752-1.982-4.391   c0-0.84,0.139-1.705,0.41-2.573c0.231-0.74,0.596-1.724,1.113-3.005l13.281-33.744c0.53-1.356,1.116-2.515,1.738-3.443   c0.712-1.061,1.656-1.93,2.807-2.582c1.182-0.668,2.61-1.007,4.25-1.007c1.659,0,3.099,0.339,4.279,1.007   c1.143,0.647,2.082,1.498,2.793,2.529c0.624,0.906,1.155,1.889,1.579,2.918l13.745,34.064c1.081,2.594,1.588,4.434,1.588,5.772   c0,1.621-0.651,3.093-1.935,4.375c-1.283,1.282-2.852,1.933-4.662,1.933c-1.049,0-1.989-0.204-2.794-0.606   c-0.793-0.396-1.469-0.943-2.005-1.627c-0.469-0.592-0.938-1.425-1.427-2.541c-0.425-0.97-0.79-1.825-1.094-2.566l-1.793-4.712   H61.589L59.808,169.244z" fill="#FFFFFF"/>
	<path d="M228.36,0c-35.373,0-64.151,28.789-64.151,64.176c0,51.179,55.396,100.554,57.754,102.631   c1.829,1.609,4.113,2.415,6.398,2.415c2.285,0,4.569-0.806,6.398-2.415c2.357-2.077,57.753-51.452,57.753-102.631   C292.512,28.789,263.733,0,228.36,0z M249.912,82.351c-1.552,2.427-3.678,4.246-6.315,5.405c-1.622,0.678-3.453,1.149-5.476,1.416   c-1.936,0.256-4.217,0.387-6.778,0.387h-14.398c-2.621,0-4.59-0.672-5.854-1.999c-1.239-1.3-1.868-3.247-1.868-5.787V46.354   c0-2.602,0.65-4.57,1.933-5.853c1.283-1.283,3.231-1.934,5.789-1.934h15.267c2.343,0,4.419,0.149,6.171,0.444   c1.883,0.318,3.605,0.944,5.117,1.86c1.281,0.765,2.439,1.753,3.434,2.931c1.001,1.19,1.774,2.522,2.3,3.959   c0.525,1.441,0.792,2.979,0.792,4.57c0,4.134-1.64,7.546-4.784,10.036c5.689,3.11,7.002,7.985,7.002,11.819   C252.242,77.188,251.459,79.934,249.912,82.351z" fill="#FFFFFF"/>
	<path d="M233.082,68.595v0.04h-10.441v9.884h10.441v0.029c2.748,0,4.977-2.227,4.977-4.976   C238.059,70.823,235.83,68.595,233.082,68.595z" fill="#FFFFFF"/>
	<path d="M236.593,53.673c0-2.343-1.901-4.243-4.245-4.243h-9.707v8.486h9.707C234.691,57.916,236.593,56.018,236.593,53.673z" fill="#FFFFFF"/>
</g>
<g>
</g>
<g>
</g>
<g>
</g>
<g>
</g>
<g>
</g>
<g>
</g>
<g>
</g>
<g>
</g>
<g>
</g>
<g>
</g>
<g>
</g>
<g>
</g>
<g>
</g>
<g>
</g>
<g>
</g>
</svg>
