<?xml version="1.0" encoding="iso-8859-1"?>
<!-- Generator: Adobe Illustrator 16.0.0, SVG Export Plug-In . SVG Version: 6.00 Build 0)  -->
<!DOCTYPE svg PUBLIC "-//W3C//DTD SVG 1.1//EN" "http://www.w3.org/Graphics/SVG/1.1/DTD/svg11.dtd">
<svg version="1.1" id="Capa_1" xmlns="http://www.w3.org/2000/svg" xmlns:xlink="http://www.w3.org/1999/xlink" x="0px" y="0px"
	 width="46.081px" height="46.082px" viewBox="0 0 46.081 46.082" style="enable-background:new 0 0 46.081 46.082;"
	 xml:space="preserve">
<g>
	<g>
		<g>
			<path d="M43.056,29.816v-0.877c0-3.478-2.806-6.277-6.282-6.277l0,0c-1.054,0-2.021-0.583-2.524-1.507l-3.381-6.194
				c-0.507-0.926-1.479-1.502-2.531-1.5L8.86,13.495c-0.863,0.001-1.681,0.39-2.227,1.061l-4.032,4.955
				c-1.631,2.003-2.183,4.676-1.48,7.163l0.905,3.202c-0.421,0.15-0.81,0.395-1.132,0.716C0.322,31.162,0,31.94,0,32.748
				c0,1.683,1.362,3.046,3.044,3.049l1.559,0.002c-0.004,0.095-0.008,0.188-0.008,0.28c0,2.953,2.394,5.347,5.347,5.347
				c2.954,0,5.347-2.394,5.347-5.347c0-0.088-0.003-0.177-0.006-0.265l11.68,0.018c-0.003,0.082-0.005,0.165-0.005,0.248
				c0,2.953,2.392,5.346,5.347,5.346c2.952,0,5.347-2.393,5.347-5.346c0-0.078-0.004-0.154-0.007-0.231l5.46-0.009
				c1.645-0.002,2.977-1.335,2.977-2.979V32.8c0-1.644-1.329-2.977-2.973-2.979L43.056,29.816z M10.235,22.706H5.392
				c-0.441,0-0.845-0.25-1.041-0.645c-0.195-0.396-0.15-0.868,0.117-1.219l3.562-4.677c0.304-0.4,0.777-0.632,1.28-0.632h0.926
				L10.235,22.706L10.235,22.706z M20.413,22.706h-7.264v-7.173h7.264V22.706z M31.231,22.15c-0.211,0.345-0.586,0.556-0.989,0.556
				h-6.96v-7.173h4.192c0.604,0,1.155,0.335,1.433,0.872l2.367,4.611C31.46,21.376,31.444,21.805,31.231,22.15z"/>
			<path d="M6.775,11.901h21.296c3.203,0,5.809-2.595,5.809-5.798c0-0.802-0.649-1.447-1.451-1.447c-0.803,0-1.451,0.66-1.451,1.461
				c0,1.602-1.305,2.914-2.905,2.914H6.776c-0.802,0-1.452,0.632-1.452,1.435C5.323,11.269,5.974,11.901,6.775,11.901z"/>
		</g>
	</g>
</g>
<g>
</g>
<g>
</g>
<g>
</g>
<g>
</g>
<g>
</g>
<g>
</g>
<g>
</g>
<g>
</g>
<g>
</g>
<g>
</g>
<g>
</g>
<g>
</g>
<g>
</g>
<g>
</g>
<g>
</g>
</svg>
